<?xml version="1.0" encoding="utf-8"?>
<!-- Generator: Adobe Illustrator 24.0.1, SVG Export Plug-In . SVG Version: 6.00 Build 0)  -->
<svg version="1.1" xmlns="http://www.w3.org/2000/svg" xmlns:xlink="http://www.w3.org/1999/xlink" x="0px" y="0px"
	 viewBox="0 0 118.2 218" style="enable-background:new 0 0 118.2 218;" xml:space="preserve">
<style type="text/css">
	.st0{display:none;}
	.st1{display:inline;}
	.st2{fill:#F9F1E1;}
	.st3{fill:#EAF4FE;}
	.st4{fill:none;stroke:#0561FC;stroke-width:6.8376;stroke-miterlimit:10;}
	.st5{fill:#0561FC;}
	.st6{fill:#C5E1F9;}
	.st7{fill:#7EB3FF;}
	.st8{fill:#B5D5EA;}
	.st9{fill:#E1EBF4;}
	.st10{fill:#9AC7F7;}
	.st11{fill:none;stroke:#0561FC;stroke-width:6.8376;}
	.st12{fill:none;stroke:#7EB3FF;stroke-width:6.8376;}
	.st13{fill:none;stroke:#0561FC;stroke-width:6.8376;stroke-linecap:round;}
	.st14{fill:none;stroke:#0561FC;stroke-width:7.1001;}
	.st15{fill:#B6D9EF;}
	.st16{fill:none;stroke:#9AC7F7;stroke-width:6.8376;}
	.st17{fill:none;stroke:#0561FC;stroke-width:6.8376;stroke-linejoin:bevel;}
	.st18{fill:none;stroke:#0561FC;stroke-width:6.8376;stroke-linecap:round;stroke-linejoin:round;}
	.st19{fill:none;stroke:#0561FC;stroke-width:5.0237;}
	.st20{fill:none;stroke:#0450CF;stroke-width:6.8376;}
	.st21{fill:none;stroke:#C5E1F9;stroke-width:6.8376;}
	.st22{fill:#FFBF0D;}
	.st23{fill:#B2D2EA;}
	.st24{fill:none;stroke:#0561FC;stroke-width:6.9311;}
	.st25{fill:none;stroke:#0561FC;stroke-width:6.8376;stroke-linecap:round;stroke-miterlimit:10;}
	.st26{fill:#FFFFFF;}
	.st27{fill:#FFFFFF;stroke:#0561FC;stroke-width:6.8376;}
</style>
<g id="Layer_2">
	<g class="st0">
		<g class="st1">
			<rect x="-42.6" y="-7.3" class="st2" width="218.8" height="218.8"/>
		</g>
	</g>
</g>
<g id="Layer_3">
</g>
<g id="Layer_4">
	<g>
		<g>
			<path class="st5" d="M34.1,179.9v-54h-1.4C13.1,138,0,159.6,0,184.1v30.5h15.1C17.9,201.2,24.6,189.2,34.1,179.9z"/>
			<path class="st5" d="M84.2,179.9v-54h1.4c19.5,12.1,32.7,33.6,32.7,58.1v30.5h-15.1C100.4,201.2,93.6,189.2,84.2,179.9z"/>
		</g>
		<path class="st6" d="M93.2,190.8V59c0-25.1-13.8-47.1-34.1-59C38.8,11.9,25,33.9,25,59v131.7H93.2z"/>
		<path class="st3" d="M59.1,190.8h34.1V59c0-25.1-13.8-47.1-34.1-59"/>
		<path class="st5" d="M26,47.5h66.2C88.7,27.3,76.3,10,59.1,0C42,10,29.5,27.3,26,47.5z"/>
		<circle class="st18" cx="59.1" cy="78.8" r="15.3"/>
		<line class="st18" x1="59.1" y1="130.5" x2="59.1" y2="214.6"/>
	</g>
</g>
</svg>
