<?xml version="1.0" encoding="UTF-8"?>
<!DOCTYPE svg PUBLIC "-//W3C//DTD SVG 1.1//EN" "http://www.w3.org/Graphics/SVG/1.1/DTD/svg11.dtd">
<!-- Creator: CorelDRAW -->
<svg xmlns="http://www.w3.org/2000/svg" xml:space="preserve" width="6.82666in" height="6.82666in" style="shape-rendering:geometricPrecision; text-rendering:geometricPrecision; image-rendering:optimizeQuality; fill-rule:evenodd; clip-rule:evenodd"
viewBox="0 0 6.82666 6.82666"
 xmlns:xlink="http://www.w3.org/1999/xlink">
 <defs>
  <style type="text/css">
   <![CDATA[
    .fil5 {fill:none}
    .fil4 {fill:#00838F}
    .fil1 {fill:#0D47A1}
    .fil2 {fill:#26C6DA}
    .fil3 {fill:#FFFFFE}
    .fil0 {fill:#0D47A1;fill-rule:nonzero}
   ]]>
  </style>
 </defs>
 <g id="Layer_x0020_1">
  <metadata id="CorelCorpID_0Corel-Layer"/>
  <path class="fil0" d="M5.19145 3.60137c0,0.268386 -0.475461,0.42965 -1.08404,0.491346 -0.221142,0.0224173 -0.458661,0.0336299 -0.694083,0.0336299 -0.235421,0 -0.472941,-0.0112126 -0.694083,-0.0336299 -0.608579,-0.0617008 -1.08404,-0.222957 -1.08404,-0.491346l0.213339 0c0,0.133185 0.391028,0.228933 0.891535,0.279677 0.210165,0.0213031 0.440665,0.0319606 0.673248,0.0319606 0.232583,0 0.463083,-0.0106575 0.673248,-0.0319606 0.500508,-0.0507402 0.891535,-0.146492 0.891535,-0.279677l0.213339 0z"/>
  <path class="fil0" d="M4.8773 4.37788c0,0.230646 -0.394031,0.36776 -0.898386,0.41889 -0.18061,0.018311 -0.374146,0.0274646 -0.565587,0.0274646 -0.191441,0 -0.384984,-0.00915748 -0.565587,-0.0274646 -0.504354,-0.0511299 -0.898386,-0.188244 -0.898386,-0.41889l0.213339 0c0,0.0954449 0.309598,0.167047 0.705882,0.20722 0.16963,0.0171929 0.35615,0.0257953 0.544752,0.0257953 0.188602,0 0.375118,-0.00859843 0.544752,-0.0257953 0.396283,-0.0401732 0.705882,-0.111776 0.705882,-0.20722l0.213339 0z"/>
  <path class="fil1" d="M4.4606 2.33242c0.893303,0.0852756 1.51272,0.271102 1.51272,0.486661 0,0.296276 -1.17003,0.536457 -2.61333,0.536457 -1.4433,0 -2.61333,-0.240181 -2.61333,-0.536457 0,-0.224339 0.670894,-0.416476 1.62321,-0.496575 -0.0370394,0.0947441 -0.061563,0.195764 -0.0715079,0.301028l1.11496 0 1.11496 0c-0.00959843,-0.101602 -0.0327795,-0.199248 -0.067689,-0.291114z"/>
  <path class="fil0" d="M4.13064 5.17031c0,0.140953 -0.200496,0.220657 -0.457126,0.246673 -0.0842717,0.00854331 -0.173276,0.012815 -0.260181,0.012815 -0.0869055,0 -0.175913,-0.00427165 -0.260181,-0.012815 -0.25663,-0.0260157 -0.457126,-0.105728 -0.457126,-0.246673l0.213339 0c0,0.00574803 0.116063,0.0199449 0.264622,0.0350039 0.0732913,0.00742913 0.15528,0.0111457 0.239346,0.0111457 0.0840669,0 0.166051,-0.00371654 0.239346,-0.0111457 0.148559,-0.0150591 0.264622,-0.0292559 0.264622,-0.0350039l0.213339 0z"/>
  <path class="fil2" d="M4.62559 1.79684c-0.310224,-0.310236 -0.738827,-0.502118 -1.21226,-0.502118 -0.473433,0 -0.902035,0.191882 -1.21226,0.502118 -0.274138,0.274138 -0.455835,0.64072 -0.494409,1.04898 0.0140276,0.00601575 0.0280472,0.0118898 0.042063,0.0177598 0.449409,0.0770079 1.02576,0.123394 1.65892,0.123394 0.632181,0 1.21611,-0.0462402 1.67096,-0.123035 0.0138031,-0.00598425 0.0276024,-0.0119843 0.0413937,-0.0181181 -0.0385748,-0.40826 -0.220272,-0.774843 -0.494409,-1.04898z"/>
  <g id="_312139080">
   <path id="_312139536" class="fil3" d="M2.52176 2.18823c0.079437,0 0.143854,0.0644173 0.143854,0.143854 0,0.079437 -0.0644173,0.143854 -0.143854,0.143854 -0.079437,0 -0.143854,-0.0644173 -0.143854,-0.143854 0,-0.079437 0.0644173,-0.143854 0.143854,-0.143854zm0.35663 0c0.079437,0 0.143854,0.0644173 0.143854,0.143854 0,0.079437 -0.0644173,0.143854 -0.143854,0.143854 -0.079437,0 -0.143854,-0.0644173 -0.143854,-0.143854 0,-0.079437 0.0644173,-0.143854 0.143854,-0.143854zm0.35663 0c0.079437,0 0.143854,0.0644173 0.143854,0.143854 0,0.079437 -0.0644173,0.143854 -0.143854,0.143854 -0.079437,0 -0.143854,-0.0644173 -0.143854,-0.143854 0,-0.079437 0.0644173,-0.143854 0.143854,-0.143854zm0.35663 0c0.079437,0 0.143854,0.0644173 0.143854,0.143854 0,0.079437 -0.0644173,0.143854 -0.143854,0.143854 -0.079437,0 -0.143854,-0.0644173 -0.143854,-0.143854 0,-0.079437 0.0644173,-0.143854 0.143854,-0.143854zm0.35663 0c0.079437,0 0.143854,0.0644173 0.143854,0.143854 0,0.079437 -0.0644173,0.143854 -0.143854,0.143854 -0.079437,0 -0.143854,-0.0644173 -0.143854,-0.143854 0,-0.079437 0.0644173,-0.143854 0.143854,-0.143854zm0.35663 0c0.079437,0 0.143854,0.0644173 0.143854,0.143854 0,0.079437 -0.0644173,0.143854 -0.143854,0.143854 -0.079437,0 -0.143854,-0.0644173 -0.143854,-0.143854 0,-0.079437 0.0644173,-0.143854 0.143854,-0.143854z"/>
   <g>
    <circle id="_312140088" class="fil4" cx="2.52176" cy="2.33209" r="0.117189"/>
    <circle id="_312140256" class="fil4" cx="2.87839" cy="2.33209" r="0.117189"/>
    <circle id="_312139560" class="fil4" cx="3.23502" cy="2.33209" r="0.117189"/>
    <circle id="_312140112" class="fil4" cx="3.59165" cy="2.33209" r="0.117189"/>
    <circle id="_312139176" class="fil4" cx="3.94828" cy="2.33209" r="0.117189"/>
    <circle id="_312139056" class="fil4" cx="4.30491" cy="2.33209" r="0.117189"/>
   </g>
  </g>
 </g>
 <rect class="fil5" width="6.82666" height="6.82666"/>
</svg>
